<?xml version="1.0" encoding="utf-8" ?>
<svg xmlns="http://www.w3.org/2000/svg" xmlns:xlink="http://www.w3.org/1999/xlink" width="1024" height="1024">
	<path d="M887.846 496.966C887.298 498.12 886.747 499.272 886.217 500.434C890.877 500.544 896.864 497.674 901.198 496.024C894.454 507.895 886.778 519.214 879.404 530.698C870.387 544.739 861.53 558.875 852.189 572.707C847.527 579.61 841.919 586.109 837.534 593.146C833.733 590.502 830.139 587.546 826.504 584.679C830.33 578.303 834.962 572.187 839.153 566.027C848.84 551.788 858.638 537.677 868.617 523.64C874.746 515.018 880.708 504.605 887.846 496.966Z"/>
	<path d="M726.607 57.4187L727.301 56.8563C729.338 58.654 730.961 62.7291 732.258 65.1645C743.441 86.1608 750.309 107.837 756.727 130.601C757.953 127.558 759.179 124.982 760.994 122.236C761.062 133.865 763.12 145.324 763.726 156.912C764.48 171.305 762.451 185.694 759.874 199.819C790.941 168.855 808.207 146.284 824.435 105.459C825.006 131.668 824.828 154.662 821.772 180.799C837.118 169.209 849.116 155.27 860.783 140.086L856.9 171.361C857.016 181.579 855.798 191.694 854.446 201.808C851.026 227.395 845.188 251.237 837.673 275.886C856.415 266.911 867.285 259.704 882.893 245.962C884.629 243.9 886.278 241.916 887.658 239.586C879.387 286.809 863.745 333.349 844.391 377.141C845.003 377.782 844.66 377.575 845.374 377.835C858.947 374.543 872.499 371.608 886.227 369.014C885.35 371.291 884.533 373.59 883.709 375.887C883.139 378.089 882.58 380.289 881.916 382.466L886.585 384.025C883.032 394.898 878.505 405.479 874.224 416.082C868.065 431.334 861.903 446.582 855.361 461.674C851.367 470.888 846.84 480.056 843.3 489.444C842.665 491.129 841.302 493.959 842.067 495.6L842.88 495.799C861.362 490.777 879.816 485.391 898.384 480.72C894.999 485.888 890.495 491.451 887.846 496.966C880.708 504.605 874.746 515.018 868.617 523.64C858.638 537.677 848.84 551.788 839.153 566.027C834.962 572.187 830.33 578.303 826.504 584.679C830.139 587.546 833.733 590.502 837.534 593.146L883.255 627.055C890.165 632.238 899.957 638.393 905.521 644.822C899.91 649.394 893.292 652.578 886.773 655.652C893.993 660.391 901.482 665.364 908.262 670.705C885.146 677.803 861.758 684.338 838.371 690.484C823.635 694.357 808.696 697.816 794.085 702.126C793.716 707.289 792.198 716.159 794.617 720.721C798.364 723.928 814.324 735.701 815.276 738.455L814.679 738.884C810.596 740.527 806.297 741.697 802.091 742.987C805.69 746.014 809.387 748.714 813.26 751.368C809.823 754.133 805.848 755.897 801.886 757.776C805.204 759.975 808.643 762.095 811.778 764.545C805.28 766.807 798.688 768.282 791.962 769.681C786.196 782.214 780.814 794.689 773.499 806.439C738.599 862.499 677.6 912.449 615.678 935.34C539.751 963.408 443.547 960.282 369.904 926.373C365.203 924.208 347.139 914.273 343.643 915.381C347.145 922.852 351.257 929.929 355.693 936.879C353.533 935.281 351.376 933.744 349.468 931.843C345.638 930.232 341.89 928.524 338.16 926.694C340.873 934.617 345.025 942.036 348.833 949.47C325.124 943.112 290.768 931.066 273.308 913.666C264.993 905.378 259.582 895.067 256.875 883.681C253.213 868.287 255.023 851.668 255.084 835.968L255.116 777.607C247.306 780.245 239.45 782.68 231.555 785.052C212.119 770.445 193.846 754.166 175.046 738.745L144.972 714.075C136.07 706.726 126.412 699.542 119.283 690.406C121.854 688.857 124.662 687.745 127.412 686.559C124.218 684.283 121.135 681.909 118.076 679.456C121.356 678.352 124.597 677.087 127.847 675.893C126.261 673.539 122.809 670.517 122.098 667.92C126.922 664.8 138.232 662.447 144.085 660.728C157.573 656.767 171.056 652.786 184.604 649.034C184.658 648.847 184.76 648.667 184.768 648.472C184.805 647.568 184.744 647.703 184.182 647.202C161.12 626.645 138.538 605.431 115.066 585.347C116.206 584.709 117.307 584.01 118.415 583.318C119.373 581.397 118.039 577.759 118.01 575.472C117.952 570.941 119.167 566.48 118.985 561.923C125.02 558.779 133.597 557.294 140.2 555.624C157.28 551.302 174.942 547.834 191.755 542.635C177.033 515.829 174.394 478.668 180.828 449.094C180.249 448.792 179.996 448.682 179.479 448.345C163.176 437.733 157.49 411.394 154.066 393.817C160.581 397.837 167.742 400.563 174.894 403.202C166.055 392.621 157.383 382.591 152.356 369.505C143.828 347.306 146.847 318.988 156.371 297.571C162.881 312.532 169.731 327.254 184.398 335.705C180.798 328.477 177.565 320.67 175.182 312.962C165.993 283.244 174.237 253.719 188.338 227.119C196.169 246.545 215.508 274.231 231.638 287.658L232.69 287.538C242.019 271.879 254.236 256.99 266.682 243.717C310.613 196.87 366.092 164.438 428.012 147.661C498.874 128.462 597.283 139.319 661.018 175.918C665.47 172.512 670.556 163.988 674.066 159.221C689.046 138.88 702.368 117.56 712.247 94.2476C717.391 82.1083 721.266 69.4906 726.607 57.4187Z"/>
	<path fill="#8FEDF5" d="M320.551 538.196C323.374 536.878 326.884 534.764 330.042 534.576C331.724 534.477 332.104 534.93 333.356 536.006C330.246 537.86 325.425 539.738 321.777 538.749C321.244 538.605 321.001 538.444 320.551 538.196Z"/>
	<path fill="#6E0639" d="M744.577 732.952C747.017 739.468 749.343 745.963 751.357 752.624C750.147 753.011 748.903 753.501 747.664 753.767C747.183 746.893 745.432 739.845 744.577 732.952Z"/>
	<path fill="#6E0639" d="M568.462 785.541C569.318 794.518 569.509 803.353 569.486 812.363L567.582 813.281C567.291 804.063 567.493 794.808 567.538 785.585L568.462 785.541Z"/>
	<path fill="#6E0639" d="M615.628 687.049C618.429 686.186 621.195 685.066 623.95 684.058L623.917 694.742C623.689 697.631 624.372 702.813 623.187 705.284C622.433 704.802 622.652 705.095 622.369 704.554C620.297 698.645 617.425 693.064 615.628 687.049Z"/>
	<path fill="#6E0639" d="M494.238 777.053C494.857 777.179 495.29 777.623 495.792 777.993L495.715 778.542C492.379 782.226 471.364 787.724 465.603 789.607C464.536 789.391 464.343 789.201 463.506 788.483L463.768 787.94C463.834 787.802 463.877 787.652 463.96 787.523C466.122 784.162 488.93 778.577 494.238 777.053Z"/>
	<path fill="#E01158" d="M776.522 689.461C778.526 692.042 776.706 710.912 776.446 715.002L773.33 709.193C771.426 705.399 769.638 701.627 768.06 697.685C771.026 695.127 773.747 692.227 776.522 689.461Z"/>
	<path fill="#2DA5D5" d="M347.362 479.326C349.293 481.091 351.127 482.963 352.984 484.804C344.361 485.892 336.119 487.912 328.649 492.48C328.029 489.017 327.027 485.638 326.099 482.248C333.124 480.959 340.276 480.215 347.362 479.326Z"/>
	<path fill="#1988C0" d="M696.534 731.779C696.74 732.018 696.956 732.249 697.152 732.496C698.198 733.807 698.137 735.612 698.241 737.212L698.771 737.764C703.926 736.844 708.919 734.751 713.909 736.957C716.403 738.06 718.911 739.576 721.644 738.702C722.627 736.681 722.952 734.393 723.414 732.206L723.48 739.662C720.174 740.828 701.238 748.214 700.224 748.125C699.727 748.081 699.294 747.762 698.829 747.58L697.786 748.236L697.797 748.91L697.378 748.818C695.175 745.575 696.391 735.897 696.534 731.779Z"/>
	<path fill="#6E0639" d="M673.24 550.366C687.347 546.606 700.688 542.308 714.335 537.092C713.215 542.285 710.333 550.475 712.241 555.551C698.816 555.383 686.266 553.521 673.24 550.366Z"/>
	<path fill="#2DA5D5" d="M333.356 536.006C337.08 541.924 341.865 547.333 346.356 552.679C330.571 552.029 315.991 548.86 300.925 544.383C307.461 542.313 313.982 540.152 320.551 538.196C321.001 538.444 321.244 538.605 321.777 538.749C325.425 539.738 330.246 537.86 333.356 536.006Z"/>
	<path fill="#4D0B34" d="M369.723 687.796C376.609 692.539 382.648 695.08 390.989 696.01C393.547 696.295 396.286 696.13 398.784 696.659C398.41 699.296 398.521 702.227 398.422 704.903L388.404 705.598L385.812 700.575C377.174 703.241 368.747 706.553 359.977 708.792C362.582 701.547 366.582 694.827 369.723 687.796Z"/>
	<path fill="#4D0B34" d="M622.369 704.554C622.652 705.095 622.433 704.802 623.187 705.284C624.372 702.813 623.689 697.631 623.917 694.742L624.468 773.219C622.266 771.067 619.982 769.239 617.51 767.408L617.473 730.875C617.43 722.998 616.575 714.018 618.047 706.299C619.058 705.039 620.818 704.953 622.369 704.554Z"/>
	<path fill="#FBCD50" d="M301.065 480.03C303.059 470.625 306.355 462.389 311.706 454.354C315.161 449.165 320.33 441.73 326.907 440.615C330.43 440.017 332.792 441.497 335.623 443.407C331.964 448.695 326.41 452.527 322.44 457.639C317.453 464.061 314.038 471.378 309.237 477.806C306.525 478.59 303.793 479.302 301.065 480.03Z"/>
	<path fill="#E01158" d="M349.468 931.843C327.815 906.784 321.763 889.224 318.926 856.679C318.284 849.32 317.097 841.399 317.336 834.054C318.042 835.135 320.136 846.233 320.924 848.865C323.664 858.019 327.847 866.775 330.867 875.867C334.533 886.906 337.918 905.247 343.242 914.693C343.372 914.924 343.509 915.152 343.643 915.381C347.145 922.852 351.257 929.929 355.693 936.879C353.533 935.281 351.376 933.744 349.468 931.843Z"/>
	<path fill="#F7A036" d="M335.623 443.407C345.365 453.26 346.394 462.322 347.055 475.63C334.132 474.249 322.041 476.599 309.237 477.806C314.038 471.378 317.453 464.061 322.44 457.639C326.41 452.527 331.964 448.695 335.623 443.407Z"/>
	<path fill="#1988C0" d="M629.742 758.495C642.423 749.817 661.818 745.141 677.133 744.972L678.053 744.968C681.392 744.939 683.855 746.378 686.966 747.251C688.266 747.615 688.924 747.778 690.098 747.1C690.408 745.846 690.657 744.581 690.911 743.314L691.554 749.635C670.886 757.223 649.66 763.241 629.023 770.851C629.049 765.276 629.081 759.704 629.204 754.13C629.912 755.26 629.698 757.138 629.742 758.495Z"/>
	<path fill="#8FEDF5" d="M426.166 367.736C432.469 366.052 437.983 363.537 443.665 360.354L438.694 367.755C434.541 367.164 431.088 368.164 427.167 369.367C413.589 376.172 398.979 376.054 384.582 379.569C362.362 384.996 333.516 403.46 325.858 426.194C325.146 428.309 324.779 431.785 323.382 433.447C322.496 432.767 322.567 432.419 322.447 431.296C322.416 431.012 322.442 430.725 322.413 430.441C322.292 429.235 321.663 428.37 320.963 427.421C322.191 420.871 325.4 414.644 329.185 409.227C344.335 387.539 368.159 374.628 394.079 371.091C404.765 369.633 415.526 369.67 426.166 367.736Z"/>
	<path fill="#2DA5D5" d="M501.819 546.285C500.427 544.866 498.206 543.059 498.097 540.984C499.892 541.043 521.188 554.485 525.493 556.517C532.337 559.747 539.658 562.425 546.861 564.757C556.103 567.75 594.345 578.462 601.733 575.159C605.892 576.403 609.949 578.107 614.004 579.653C580.207 584.953 549.889 581.507 520.82 561.965C514.59 557.776 508.188 549.708 502.365 546.536C502.189 546.44 502.001 546.369 501.819 546.285Z"/>
	<path fill="#4D0B34" d="M551.12 707.581C556.879 705.732 562.827 704.287 568.665 702.694C568.679 718.429 568.759 734.17 568.554 749.904C568.398 761.788 567.754 773.663 568.462 785.541L567.538 785.585C567.571 780.93 567.93 775.809 566.738 771.274C565.676 770.072 565.539 769.799 564.017 769.377C562.655 767.782 562.433 764.899 562.007 762.868C552.649 763.622 543.547 766.548 534.524 769.016L534.5 761.878C542.078 759.703 549.562 757.313 557.047 754.839C557.69 739.959 557.528 725.052 557.512 710.162L551.12 707.581Z"/>
	<path fill="#2DA5D5" d="M468.941 549.587C473.367 554.725 477.746 560.036 482.816 564.553C496.08 576.37 516.116 586.909 534.16 588.052C536.031 588.17 538.009 587.593 539.503 586.47C547.197 592.311 554.045 599.231 561.965 604.781C533.464 604.224 505.226 596.296 484.284 576.128C480.469 572.454 478.512 567.013 474.799 563.329C474.593 563.124 474.381 562.926 474.171 562.724C471.124 560.405 469.897 553.218 468.941 549.587Z"/>
	<path fill="#B40F4D" d="M726.607 57.4187L727.301 56.8563C729.338 58.654 730.961 62.7291 732.258 65.1645C743.441 86.1608 750.309 107.837 756.727 130.601C754.85 143.21 751.48 158.312 745.557 169.66C745.292 158.833 744.836 148.075 743.293 137.343C740.799 119.996 736.038 103.001 732.104 85.9448C729.925 76.4928 728.392 66.9468 726.607 57.4187Z"/>
	<path fill="#2DA5D5" d="M424.893 555.91C424.296 554.901 424.276 554.428 424.369 553.268C425.25 553.249 424.896 553.096 425.507 553.687C432.038 560.004 437.376 567.332 444.182 573.444C450.106 578.764 484.498 602.768 492.164 602.207C492.833 602.158 492.833 602.121 493.365 601.913C496.765 605.266 499.765 610.157 502.759 613.976C507.018 619.41 511.641 624.477 516.354 629.517C509.364 626.132 501.763 623.664 494.636 620.487C470.817 609.869 449.299 594.581 434.248 573C430.638 567.824 428.608 561.658 425.186 556.353C425.09 556.204 424.991 556.058 424.893 555.91Z"/>
	<path fill="#B40F4D" d="M882.893 245.962C883.075 250.464 878.973 256.62 876.936 260.55C866.823 280.066 855.668 298.575 840.729 314.823C830.928 325.484 819.345 333.977 806.944 341.342C815.749 327.347 835.126 291.781 837.673 275.886C856.415 266.911 867.285 259.704 882.893 245.962Z"/>
	<path fill="#2DA5D5" d="M597.94 431.831C631.205 433.158 661.535 430.784 693.696 421.97C705.466 418.745 717.017 414.366 728.363 409.903C736.975 406.515 767.152 391.542 773.78 391.971C764.285 400.411 754.77 408.416 744.061 415.3C713.092 435.208 675.276 444.243 638.651 442.043C630.455 441.551 622.379 440.367 614.293 438.985C608.99 438.079 601.743 435.785 596.461 436.223L595.135 436.049C595.992 434.539 596.789 433.138 597.94 431.831Z"/>
	<path fill="#B40F4D" d="M714.335 537.092C725.896 531.476 737.133 525.39 748.111 518.708C749.649 524.896 745.695 537.319 744.44 543.921C742.646 553.362 741.16 562.886 739.632 572.373C738.475 579.557 736.732 587.171 736.977 594.453C726.212 597.133 715.482 600.45 704.944 603.92C704.842 600.241 706.22 595.967 706.971 592.326C708.277 585.997 713.702 560.766 712.705 556.106L712.241 555.551C710.333 550.475 713.215 542.285 714.335 537.092Z"/>
	<path fill="#B40F4D" d="M860.783 140.086L856.9 171.361C855.733 179.381 853.099 187.699 850.276 195.269C839.978 222.888 823.052 244.957 799.806 262.904C802.05 257.11 804.807 251.554 807.093 245.783C811.905 233.637 815.456 221.064 817.95 208.245C819.717 199.16 820.039 189.894 821.772 180.799C837.118 169.209 849.116 155.27 860.783 140.086Z"/>
	<path fill="#8FEDF5" d="M189.477 258.545C189.62 258.692 189.766 258.836 189.907 258.984C196.69 266.139 201.666 276.066 208.874 283.822C238.572 315.778 272.427 342.255 310.49 363.615C319.989 368.945 329.536 374.184 339.513 378.581C336.173 381.594 332.761 384.902 329.041 387.418C320.746 384.717 312.848 379.965 305.206 375.805C282.797 363.606 261.072 350.665 241.083 334.722C216.637 315.224 193.121 291.145 189.477 258.545Z"/>
	<path fill="#2DA5D5" d="M211.743 470.371C224.468 473.409 237.117 475.183 250.145 476.257C255.052 476.267 260.531 475.87 265.346 476.697C273.106 479.013 282.328 475.731 288.72 478.428L289.221 479.391L288.983 484.081L289.549 497.556C297.663 495.091 305.508 492.394 313.752 490.352C318.24 505.514 324.03 518.932 331.18 533.001C304.545 533.12 277.707 529.364 254.136 516.169C269.974 514.902 287.902 514.289 302.866 508.73C295.739 508.075 288.422 507.681 281.388 506.361C256.161 501.627 229.552 489.061 211.743 470.371Z"/>
	<path fill="#2EC6E6" d="M250.145 476.257C255.052 476.267 260.531 475.87 265.346 476.697C273.106 479.013 282.328 475.731 288.72 478.428L289.221 479.391L288.983 484.081C279.586 484.43 255.268 484.549 248.375 478.16L248.372 476.916L250.145 476.257Z"/>
	<path fill="#6E0639" d="M312.075 561.541C327.073 566.105 341.626 566.836 357.174 566.492C374.934 584.349 391.399 596.519 413.057 609.234C409.848 612.555 406.969 617.912 402.454 619.34C403.264 616.289 404.106 613.268 405.074 610.262C387.538 618.721 367.722 622.163 349.631 629.205C346.341 624.016 341.84 619.503 338.373 614.386C327.481 598.313 317.919 580.103 312.075 561.541Z"/>
	<path fill="#6E0639" d="M398.446 630.019C420.262 652.173 446.698 662.259 477.104 665.61C481.509 666.096 489.927 665.629 493.483 667.945C475.657 674.126 457.365 678.739 439.337 684.27L413.355 692.339C408.576 693.826 403.672 695.631 398.784 696.659C396.286 696.13 393.547 696.295 390.989 696.01C382.648 695.08 376.609 692.539 369.723 687.796C372.97 680.739 376.948 674.012 380.419 667.06C386.551 654.781 392.354 642.324 398.446 630.019Z"/>
	<path fill="#FEFEFE" d="M232.69 287.538C242.019 271.879 254.236 256.99 266.682 243.717C310.613 196.87 366.092 164.438 428.012 147.661C498.874 128.462 597.283 139.319 661.018 175.918C659.575 177.846 658.109 179.761 656.703 181.716C638.969 173.841 621.347 166.164 602.767 160.448C535.248 139.674 461.991 141.185 395.983 166.615C347.087 185.453 302.145 215.283 267.573 254.882C257.133 266.839 248.014 279.856 238.477 292.522C236.555 290.902 234.441 289.335 232.69 287.538Z"/>
	<path fill="#2EC6E6" d="M793.904 373.835C787.706 380.305 780.576 386.138 773.78 391.971C767.152 391.542 736.975 406.515 728.363 409.903C717.017 414.366 705.466 418.745 693.696 421.97C661.535 430.784 631.205 433.158 597.94 431.831C603.9 422.269 608.704 412.276 612.553 401.692C615.509 401.702 618.056 401.732 620.904 400.795C636.066 401.593 651.868 400.6 666.992 399.369C710.185 395.852 752.933 388.153 793.904 373.835Z"/>
	<path fill="#2DA5D5" d="M621.244 389.034C625.564 387.402 630.498 386.467 634.957 385.09L671.572 373.613C701.833 364.002 730.597 351.099 757.963 334.995C769.727 328.071 781.985 320.663 792.658 312.14C799.801 306.436 808.672 296.05 816.07 292.166L816.712 291.835C796.971 335.298 763.043 365.762 718.575 382.514C698.246 390.172 675.662 395.147 654.097 397.579C647.005 398.379 625.241 399.285 620.904 400.795C618.056 401.732 615.509 401.702 612.553 401.692C613.805 398.261 615.007 393.385 617.217 390.509C617.827 389.715 620.019 389.665 621.028 389.487L621.244 389.034Z"/>
	<path fill="#2EC6E6" d="M666.286 345.862C682.726 340.637 699.633 336.875 716.043 331.508C754.415 318.959 785.35 303.957 820.46 284.367C819.321 286.91 817.998 289.364 816.712 291.835L816.07 292.166C808.672 296.05 799.801 306.436 792.658 312.14C781.985 320.663 769.727 328.071 757.963 334.995C730.597 351.099 701.833 364.002 671.572 373.613L634.957 385.09C630.498 386.467 625.564 387.402 621.244 389.034C620.185 389.068 619.415 388.997 618.396 388.704C623.065 375.789 627.388 364.254 630.665 350.789C636.807 351.576 661.444 348.887 666.286 345.862Z"/>
	<path fill="#B40F4D" d="M259.621 534.92C267.464 537.744 275.241 540.289 283.303 542.437L285.363 546.872C293.721 552.962 302.392 557.868 312.075 561.541C317.919 580.103 327.481 598.313 338.373 614.386C341.84 619.503 346.341 624.016 349.631 629.205C341.35 631.882 332.588 635.73 324.075 637.296C316.409 639.553 308.862 642.055 301.261 644.51C297.746 637.436 292.955 630.993 289.141 624.069C280.892 609.095 274.07 592.839 269.067 576.492C266.763 568.965 264.977 561.401 263.547 553.66C262.446 547.703 261.744 541.253 259.831 535.522C259.764 535.32 259.691 535.121 259.621 534.92Z"/>
	<path fill="#91083E" d="M285.363 546.872C293.721 552.962 302.392 557.868 312.075 561.541C317.919 580.103 327.481 598.313 338.373 614.386C341.84 619.503 346.341 624.016 349.631 629.205C341.35 631.882 332.588 635.73 324.075 637.296C323.972 634.57 316.598 624.375 314.716 621.159C302.242 599.856 288.145 571.668 285.363 546.872Z"/>
	<defs>
		<linearGradient id="gradient_0" gradientUnits="userSpaceOnUse" x1="608.94049" y1="778.77295" x2="586.34753" y2="640.93396">
			<stop offset="0" stop-color="#34A0D9"/>
			<stop offset="1" stop-color="#4CCCEE"/>
		</linearGradient>
	</defs>
	<path fill="url(#gradient_0)" d="M622 634.103C623.911 637.717 622.735 652.171 622.808 657.045C615.342 659.117 607.806 661.752 600.504 664.34L600.519 778.15C592.791 781.469 581.331 783.868 573 785.904L573.011 766.25C572.811 734.845 573.467 703.399 573.513 671.987C567.8 673.506 562.142 675.446 556.499 677.215L556.497 654.315C578.228 647.292 600.169 640.812 622 634.103Z"/>
	<path fill="#8FEDF5" d="M526.518 305.252C589.813 268.033 651.428 220.167 692.854 158.645C700.748 146.922 707.838 134.659 714.354 122.121C716.902 117.217 719.457 109.356 722.388 105.354L723.097 105.345L723.468 106.725C716.577 162.127 664.145 226.759 621.203 260.161C595.79 279.928 568.023 296.249 540.176 312.286C533.214 359.972 521.265 393.711 493.427 433.328C489.145 439.423 484.348 448.162 478.504 452.661C477.61 453.35 476.812 453.76 475.673 453.866C506.931 407.739 525.726 361.617 526.518 305.252Z"/>
	<path fill="#FEFEFE" d="M781.922 687.171C784.184 685.117 786.128 682.633 788.465 680.677C789.336 679.947 789.991 679.449 791.143 679.617C794.551 684.898 789.804 708.74 791.66 717.035C792.104 719.019 793.018 719.683 794.617 720.721C798.364 723.928 814.324 735.701 815.276 738.455L814.679 738.884C810.46 739.315 805.766 740.479 801.645 741.523C800.263 741.873 798.325 742.406 797.171 743.285C793.398 746.159 788.753 757.452 785.926 762.162C771.988 785.384 755.157 808.209 736.179 827.541C695.306 869.176 640.541 899.798 584.012 913.927C504.831 933.719 413.585 924.957 342.929 882.485C346.847 881.302 350.777 880.183 354.723 879.101C427.559 918.404 514.934 925.529 594.033 902.339C656.142 884.13 713.953 845.709 753.287 794.127C767.222 775.853 778.434 756.23 789.437 736.121L795.137 734.502C790.263 729.714 785.416 725.071 780.846 719.981C781.884 709.031 781.932 698.159 781.922 687.171Z"/>
	<defs>
		<linearGradient id="gradient_1" gradientUnits="userSpaceOnUse" x1="662.74011" y1="754.84467" x2="655.61835" y2="616.1369">
			<stop offset="0" stop-color="#239AD6"/>
			<stop offset="1" stop-color="#5AD1F0"/>
		</linearGradient>
	</defs>
	<path fill="url(#gradient_1)" d="M629.495 632.363C637.357 629.249 645.726 626.881 653.809 624.371L689.7 613.16C689.553 621.147 689.522 629.131 689.515 637.12C679.362 641.578 667.635 644.195 656.988 647.371L657.019 676.439C665.227 673.707 673.662 671.482 681.968 669.053L682.014 690.141C673.823 692.684 665.918 695.922 657.506 697.759L657.494 736.472C667.453 731.327 680.126 727.617 690.983 724.901C691 730.873 691.644 737.412 690.911 743.314C690.657 744.581 690.408 745.846 690.098 747.1C688.924 747.778 688.266 747.615 686.966 747.251C683.855 746.378 681.392 744.939 678.053 744.968L677.133 744.972C661.818 745.141 642.423 749.817 629.742 758.495C629.698 757.138 629.912 755.26 629.204 754.13C628.167 739.604 629.138 724.795 629.256 710.239L629.495 632.363Z"/>
	<path fill="#2DA5D5" d="M551.789 655.515C552.437 655.482 552.755 655.634 553.353 655.858C555.216 660.359 554.438 672.385 554.518 677.726C544.88 680.603 535.2 683.355 525.493 685.988L525.499 718.039C533.853 715.393 542.164 712.889 550.705 710.909L550.736 734.678C542.571 737.115 534.312 739.21 526.183 741.775C527.028 753.494 526.345 765.403 525.95 777.135C537.159 774.407 548.486 770.872 559.466 767.313L559.51 791.381C558.791 791.907 503.644 807.621 499.007 808.993L498.688 671.678C503.886 669.619 509.537 668.194 514.884 666.538L551.789 655.515Z"/>
	<defs>
		<linearGradient id="gradient_2" gradientUnits="userSpaceOnUse" x1="428.47388" y1="826.88843" x2="497.16525" y2="676.58917">
			<stop offset="0" stop-color="#3696CD"/>
			<stop offset="1" stop-color="#4DCBEF"/>
		</linearGradient>
	</defs>
	<path fill="url(#gradient_2)" d="M490.762 673.515C492.073 673.486 491.429 673.398 492.692 673.783C494.8 677.555 493.474 689.981 493.352 694.748C482.491 698.706 471.094 701.617 459.992 704.846L460.048 735.954C468.848 732.706 477.848 729.933 486.762 727.014C486.698 734.963 486.646 742.903 486.831 750.852C477.95 753.459 468.979 755.904 460.209 758.863C460.505 771.062 460.457 783.446 459.961 795.641C471.422 791.134 483.745 787.903 495.497 784.142C495.445 792.052 495.639 799.966 495.77 807.875L495.817 809.035C495.632 809.357 495.54 809.754 495.262 810.001C493.995 811.125 481.879 814.195 479.536 814.894C463.382 819.71 447.517 825.106 431.479 830.251L431.496 691.807C450.683 684.388 471.089 679.534 490.762 673.515Z"/>
	<path fill="#B40F4D" d="M190.581 465.47C195.796 473.348 202.304 482.42 209.197 488.893C205.969 495.887 210.693 512.607 213.302 519.725C219.171 535.736 230.407 548.878 243.185 559.855C232.986 560.731 222.922 562.141 212.767 563.35C226.061 573.773 242.042 582.173 257.041 589.857C234.778 590.163 213.694 590.144 192.001 584.397L245.944 635.666C241.502 640.033 212.532 669.722 211.705 672.754C207.873 674.375 203.489 675.387 199.493 676.607L175.097 684.013C181.855 689.701 187.987 695.979 194.16 702.284C175.69 696.25 165.086 685.175 150.705 672.856C156.482 670.826 162.609 669.387 168.495 667.66C178.387 664.758 188.236 661.703 198.189 659.008C205.648 656.988 213.299 655.227 220.574 652.608C226.102 650.617 227.816 648.606 230.237 643.451C215.475 629.314 200.287 615.605 185.215 601.799C172.513 590.164 159.886 578.165 146.411 567.425C168.287 561.918 190.392 557.034 212.128 551.035C191.084 524.066 189.09 498.394 190.581 465.47Z"/>
	<path fill="#FEFEFE" d="M831.503 392.805C831.193 374.35 836.442 371.027 844.527 355.605C843.291 361.657 841.254 369.634 842.06 375.74C842.226 376.992 842.407 377.499 843.459 378.248L845.374 377.835C858.947 374.543 872.499 371.608 886.227 369.014C885.35 371.291 884.533 373.59 883.709 375.887C883.139 378.089 882.58 380.289 881.916 382.466L886.585 384.025C883.032 394.898 878.505 405.479 874.224 416.082C868.065 431.334 861.903 446.582 855.361 461.674C851.367 470.888 846.84 480.056 843.3 489.444C842.665 491.129 841.302 493.959 842.067 495.6L842.88 495.799C861.362 490.777 879.816 485.391 898.384 480.72C894.999 485.888 890.495 491.451 887.846 496.966C880.708 504.605 874.746 515.018 868.617 523.64C858.638 537.677 848.84 551.788 839.153 566.027C834.962 572.187 830.33 578.303 826.504 584.679C830.139 587.546 833.733 590.502 837.534 593.146L883.255 627.055C890.165 632.238 899.957 638.393 905.521 644.822C895.81 648.078 885.02 649.575 875.036 652.066C845.277 659.489 815.325 666.232 785.773 674.449C785.651 670.966 785.874 667.49 786.043 664.012C818.048 655.959 849.963 647.678 882.075 640.042C874.866 632.505 865.028 626.604 856.685 620.314C842.174 609.375 827.899 598.075 813.257 587.319C833.385 557.068 854.548 527.589 874.913 497.512C854.347 503.744 833.103 508.07 812.84 515.328C815.246 510.92 817.07 506.033 819.042 501.409L829.541 476.752C842.885 445.462 855.657 413.754 870.03 382.93C857.095 385.943 844.295 389.242 831.503 392.805Z"/>
	<path d="M830.422 499.64C832.681 491.746 837.098 483.738 840.336 476.16L864.415 420.456C867.965 412.375 871.48 404.269 874.838 396.107C877.618 389.347 880.119 382.266 883.709 375.887C883.139 378.089 882.58 380.289 881.916 382.466L886.585 384.025C883.032 394.898 878.505 405.479 874.224 416.082C868.065 431.334 861.903 446.582 855.361 461.674C851.367 470.888 846.84 480.056 843.3 489.444C842.665 491.129 841.302 493.959 842.067 495.6L842.88 495.799C838.777 497.245 834.598 498.429 830.422 499.64Z"/>
	<path fill="#FEFEFE" d="M180.828 449.094C183.823 450.18 185.862 451.872 188.113 454.083C184.708 478.1 185.518 504.619 194.333 527.462C197.255 535.034 201.28 541.89 204.751 549.181L158.664 559.946C151.823 561.554 144.837 563.786 137.927 564.897C150.641 575.46 162.683 587.085 175 598.123L204.5 625.005C211.685 631.56 218.993 637.906 225.87 644.797C207.542 653.039 187.327 657.777 168.032 663.358C162.505 664.957 156.837 666.344 151.435 668.328C149.238 669.134 146.637 669.924 145.167 671.817C145.33 674.117 147.512 675.602 149.13 677.004C160.6 686.938 172.427 696.484 184.033 706.262C199.97 719.691 215.748 733.318 231.852 746.547C240.89 743.877 250.105 741.403 258.924 738.069L259.032 746.957C249.711 749.695 239.861 752.905 230.912 756.66C218.137 747.696 206.182 737.033 194.213 727.034C170.355 707.104 146.831 686.755 122.098 667.92C126.922 664.8 138.232 662.447 144.085 660.728C157.573 656.767 171.056 652.786 184.604 649.034C184.658 648.847 184.76 648.667 184.768 648.472C184.805 647.568 184.744 647.703 184.182 647.202C161.12 626.645 138.538 605.431 115.066 585.347C116.206 584.709 117.307 584.01 118.415 583.318C119.373 581.397 118.039 577.759 118.01 575.472C117.952 570.941 119.167 566.48 118.985 561.923C125.02 558.779 133.597 557.294 140.2 555.624C157.28 551.302 174.942 547.834 191.755 542.635C177.033 515.829 174.394 478.668 180.828 449.094Z"/>
	<path d="M118.985 561.923C150.073 587.396 180.36 614.237 209.346 642.088C202.462 644.002 191.07 648.083 184.604 649.034C184.658 648.847 184.76 648.667 184.768 648.472C184.805 647.568 184.744 647.703 184.182 647.202C161.12 626.645 138.538 605.431 115.066 585.347C116.206 584.709 117.307 584.01 118.415 583.318C119.373 581.397 118.039 577.759 118.01 575.472C117.952 570.941 119.167 566.48 118.985 561.923Z"/>
	<path fill="#FE3E69" d="M209.197 488.893C218.5 496.555 227.883 502.838 238.428 508.687C233.745 509.36 229.208 509.577 224.479 509.504C235.068 519.94 246.304 528.247 259.621 534.92C259.691 535.121 259.764 535.32 259.831 535.522C261.744 541.253 262.446 547.703 263.547 553.66C264.977 561.401 266.763 568.965 269.067 576.492C274.07 592.839 280.892 609.095 289.141 624.069C292.955 630.993 297.746 637.436 301.261 644.51L244.181 662.559C233.427 665.955 222.602 669.893 211.705 672.754C212.532 669.722 241.502 640.033 245.944 635.666L192.001 584.397C213.694 590.144 234.778 590.163 257.041 589.857C242.042 582.173 226.061 573.773 212.767 563.35C222.922 562.141 232.986 560.731 243.185 559.855C230.407 548.878 219.171 535.736 213.302 519.725C210.693 512.607 205.969 495.887 209.197 488.893Z"/>
	<path fill="#B40F4D" d="M793.369 423.698C804.866 410.312 815.589 396.361 826.623 382.6C826.213 388.514 825.724 394.435 825.406 400.354C837.454 396.056 849.316 392.193 861.951 389.969C841.559 433.399 824.976 478.478 804.621 521.925C824.572 517.029 844.502 511.196 864.225 505.432C851.814 522.885 839.749 540.606 827.632 558.264C820.795 568.229 813.435 578.101 807.11 588.382C818.139 595.315 828.386 604.094 838.565 612.223C849.494 620.95 860.466 629.31 871.735 637.579C843.162 643.902 814.836 652.033 786.502 659.374L786.514 643.094C791.053 641.64 796.073 640.923 800.746 639.93L827.034 634.128C831.355 633.136 836.009 632.341 840.103 630.626C833.336 623.542 824.867 617.646 817.323 611.387C808.071 603.711 799.178 595.554 790.228 587.529C801.129 570.867 810.747 553.54 820.99 536.486C804.515 540.338 788.351 545.232 772.217 550.3C778.93 535.853 786.103 521.695 792.971 507.328C801.145 490.228 808.998 472.975 816.92 455.758C823.775 440.859 831.806 426.734 836.141 410.79L834.926 411.437C832.491 412.727 830.491 413.992 828.352 415.734L793.369 423.698Z"/>
	<path fill="#FE3E69" d="M836.141 410.79C831.806 426.734 823.775 440.859 816.92 455.758C808.998 472.975 801.145 490.228 792.971 507.328C786.103 521.695 778.93 535.853 772.217 550.3C788.351 545.232 804.515 540.338 820.99 536.486C810.747 553.54 801.129 570.867 790.228 587.529C799.178 595.554 808.071 603.711 817.323 611.387C824.867 617.646 833.336 623.542 840.103 630.626C836.009 632.341 831.355 633.136 827.034 634.128L800.746 639.93C796.073 640.923 791.053 641.64 786.514 643.094C786.492 632.482 786.268 621.884 785.965 611.277L780.024 612.877C780.065 608.064 780.355 603.246 780.569 598.438C774.361 594.554 768.342 590.338 762.28 586.23C754.351 589.712 745.249 591.834 736.977 594.453C736.732 587.171 738.475 579.557 739.632 572.373C741.16 562.886 742.646 553.362 744.44 543.921C745.695 537.319 749.649 524.896 748.111 518.708C761.294 509.42 774.094 499.203 785.903 488.221C770.927 491.699 755.162 492.786 739.896 494.333C782.252 473.398 800.852 453.433 828.352 415.734C830.491 413.992 832.491 412.727 834.926 411.437L836.141 410.79Z"/>
	<defs>
		<linearGradient id="gradient_3" gradientUnits="userSpaceOnUse" x1="736.57294" y1="737.08704" x2="728.46021" y2="594.26312">
			<stop offset="0" stop-color="#1FA2D6"/>
			<stop offset="1" stop-color="#55CEEE"/>
		</linearGradient>
	</defs>
	<path fill="url(#gradient_3)" d="M696.233 611.072C718.054 605.148 739.41 597.905 761.058 591.43C763.572 592.964 766.074 594.496 768.506 596.159C768.528 618.748 769.175 641.367 768.988 663.947C764.214 669.099 757.874 673.733 752.023 677.61C759.881 692.78 767.525 708.199 776.273 722.872C765.914 726.263 754.866 729.568 744.985 734.154C742.062 722.65 735.886 710.895 731.125 699.999C728.094 693.061 725.449 685.63 721.659 679.083C723.074 695.729 723.863 715.649 723.414 732.206C722.952 734.393 722.627 736.681 721.644 738.702C718.911 739.576 716.403 738.06 713.909 736.957C708.919 734.751 703.926 736.844 698.771 737.764L698.241 737.212C698.137 735.612 698.198 733.807 697.152 732.496C696.956 732.249 696.74 732.018 696.534 731.779L696.316 644.481C696.251 633.354 696.48 622.194 696.233 611.072Z"/>
	<path d="M740.535 620.522C741.433 620.511 740.934 620.426 741.98 620.984C743.742 626.364 742.542 653.136 742.519 661.051C736.244 662.691 729.922 664.831 723.866 667.148C723.596 667.173 723.405 666.864 723.185 666.706C722.91 665.651 722.491 664.48 722.546 663.385C722.789 658.611 722.286 653.61 722.242 648.809C722.172 641.304 722.418 633.777 722.502 626.27C728.538 624.424 734.542 622.504 740.535 620.522Z"/>
	<path fill="#6E0639" d="M734.174 653.722C735.285 654.404 735.902 654.898 736.647 655.973C736.552 657.586 735.904 658.236 735.034 659.574L734.294 659.651C733.071 659.097 733.035 659.174 732.494 657.961C732.627 656.135 733.166 655.229 734.174 653.722Z"/>
	<defs>
		<linearGradient id="gradient_4" gradientUnits="userSpaceOnUse" x1="630.36169" y1="672.74921" x2="495.71405" y2="531.55902">
			<stop offset="0" stop-color="#62093C"/>
			<stop offset="1" stop-color="#B10A4B"/>
		</linearGradient>
	</defs>
	<path fill="url(#gradient_4)" d="M712.705 556.106C713.702 560.766 708.277 585.997 706.971 592.326C706.22 595.967 704.842 600.241 704.944 603.92L557.001 649.208C535.846 655.463 514.963 662.892 493.483 667.945C489.927 665.629 481.509 666.096 477.104 665.61C446.698 662.259 420.262 652.173 398.446 630.019C400.008 626.555 401.195 622.923 402.454 619.34C406.969 617.912 409.848 612.555 413.057 609.234C428.684 617.369 444.527 624.293 461.61 628.805C470.802 631.233 480.223 632.81 489.473 635.013C502.659 638.154 515.563 641.998 529.232 642.305C539.204 642.529 549.202 640.072 559.027 638.608C551.976 632.741 545.594 626.205 538.772 620.084C558.343 619.832 577.217 618.241 596.52 615.029C590.215 611.265 584.545 607.376 579.092 602.445C613.691 600.805 644.504 595.701 675.754 580.198C681.367 577.414 711.187 560.612 712.705 556.106Z"/>
	<path fill="#2DA5D5" d="M802.942 176.698L803.825 175.555L804.593 175.679C805.646 180.113 804.286 186.101 803.653 190.614C800.579 212.535 795.419 232.006 783.706 251.145C764.776 282.074 727.934 313.459 696.327 330.885C690.251 334.235 669.595 343.007 666.286 345.862C661.444 348.887 636.807 351.576 630.665 350.789C631.449 345.818 632.849 340.764 633.859 335.812C634.999 330.219 635.713 323.843 637.66 318.499C639.064 312.612 639.51 306.312 639.583 300.28C643.772 294.859 649.576 293.364 654.674 289.163C667.23 283.275 678.636 274.654 690.224 267.098C718.748 248.5 747.242 229.581 772.702 206.846C783.241 197.435 793.079 186.826 802.942 176.698Z"/>
	<path fill="#8FEDF5" d="M802.942 176.698C803.752 180.58 797.338 188.89 795.132 192.256C765.328 237.737 707.852 282.894 659.841 307.92C654.843 310.525 643.136 317.41 638.122 318.44C637.97 318.472 637.814 318.48 637.66 318.499C639.064 312.612 639.51 306.312 639.583 300.28C643.772 294.859 649.576 293.364 654.674 289.163C667.23 283.275 678.636 274.654 690.224 267.098C718.748 248.5 747.242 229.581 772.702 206.846C783.241 197.435 793.079 186.826 802.942 176.698Z"/>
	<path fill="#2DA5D5" d="M423.754 694.006C424.389 693.988 425.025 694.047 425.659 694.083C426.565 696.526 425.458 701.306 425.13 703.955C422.526 724.937 418.945 745.91 416.036 766.869L406.821 838.101C396.864 841.523 386.697 844.46 376.566 847.312L373.673 808.243C372.893 796.993 372.415 785.732 371.327 774.504C369.768 784.944 369.766 795.574 369.339 806.101C368.738 820.945 368.016 835.789 366.904 850.605C354.855 854.577 342.726 858.315 330.625 862.127C330.355 853.411 328.736 844.389 327.708 835.693L320.675 779.619C318.251 761.735 315.098 743.539 314.384 725.508L344.295 717.008C345 734.927 346.943 752.901 347.979 770.824C348.592 781.431 347.644 792.606 349.781 802.999C351.299 773.726 353.844 744.304 354.509 715.012C363.809 711.863 373.365 709.353 382.84 706.792L387.369 747.962C388.446 757.413 389.012 767.442 391.701 776.574C392.065 765.852 394.363 754.784 395.835 744.155C397.854 729.571 399.476 714.932 401.552 700.356C409.002 698.433 416.388 696.226 423.754 694.006Z"/>
	<path fill="#2DA5D5" d="M189.477 258.545C193.121 291.145 216.637 315.224 241.083 334.722C261.072 350.665 282.797 363.606 305.206 375.805C312.848 379.965 320.746 384.717 329.041 387.418C324.302 392.602 319.808 397.881 315.813 403.667C308.69 417.122 306.24 425.646 307.101 441.025C304.341 443.987 301.871 447.137 299.385 450.329C295.853 456.505 291.652 463.077 290.352 470.162C289.839 472.96 290.143 476.808 289.221 479.391L288.72 478.428C282.328 475.731 273.106 479.013 265.346 476.697C264.666 475.18 263.382 475.174 261.943 474.665C246.976 469.372 232.578 462.793 218.508 455.468C199.954 445.808 185.714 434.171 174.23 416.527L187.03 420.319C198.032 422.017 208.876 425.051 219.768 427.356C228.605 429.227 237.53 430.479 246.385 432.201L246.594 431.901C245.959 430.921 225.611 420.876 222.187 418.874C210.871 412.257 200.398 404.352 190.74 395.503C170.281 376.757 161.589 359.144 160.432 331.648C161.647 333.252 162.899 334.83 164.138 336.416C186.901 360.209 218.245 377.328 248.896 388.803C244.443 381.618 235.241 375.916 229.115 369.953C219.99 361.071 211.56 350.754 204.42 340.225C191.888 321.745 182.977 300.083 185.554 277.377C186.266 271.109 188.217 265.232 189.381 259.072L189.477 258.545Z"/>
	<path fill="#8FEDF5" d="M187.03 420.319C198.032 422.017 208.876 425.051 219.768 427.356C228.605 429.227 237.53 430.479 246.385 432.201C251.648 434.538 259.184 434.585 264.908 435.109C270.077 439.661 275.097 444.431 280.269 449.001C251.115 449.187 222.566 442.413 197.059 428.076C194.529 426.654 187.85 423.229 187.03 420.319Z"/>
	<path fill="#8FEDF5" d="M164.138 336.416C186.901 360.209 218.245 377.328 248.896 388.803C251.241 390.429 254.17 391.654 256.723 392.948C257.569 397.522 258.844 402.024 260.01 406.526C232.796 396.892 206.575 384.186 184.538 365.219C176.877 358.624 164.982 347.183 164.138 336.416Z"/>
	<path fill="#FEFEFE" d="M299.385 450.329C299.262 450.242 299.137 450.156 299.015 450.067C274.745 432.347 268.244 396.984 263.81 369.052C274.587 379.988 286.042 388.859 299.762 395.875C304.87 398.487 310.515 400.353 315.375 403.386C315.522 403.478 315.667 403.574 315.813 403.667C308.69 417.122 306.24 425.646 307.101 441.025C304.341 443.987 301.871 447.137 299.385 450.329Z"/>
	<path fill="#2DA5D5" d="M392.779 619.488L394.197 619.515L394.193 620.25C388.553 627.718 349.586 678.788 344.754 681.532C340.715 683.826 335.057 684.914 330.574 686.27C321.496 689.016 312.423 691.79 303.286 694.338L303.264 801.85C303.252 826.467 301.192 852.212 305.579 876.521C307.847 889.089 312.849 900.498 319.357 911.425C305.312 906.361 290.448 899.96 279.842 889.178C264.753 873.837 265.953 854.217 266.013 834.25L265.987 705.164C251.364 710.579 236.057 714.62 221.074 718.929C207.828 709.624 194.465 697.757 183.341 685.986C214.273 675.995 245.473 666.737 276.506 657.053C315.397 644.918 354.123 632.352 392.779 619.488Z"/>
	<path fill="#B40F4D" d="M321.221 353.453C325.368 346.876 330.33 340.591 335.143 334.488C356.911 306.888 381.257 287.818 412.427 271.734C459.331 247.532 520.409 241.65 570.645 257.804C566.956 260.418 563.242 263.002 559.627 265.717C555.869 268.534 552.164 271.322 548.108 273.708C536.229 281.405 524.245 288.71 512.025 295.858C511.024 333.83 505.533 368.178 489.872 403.145C487.448 408.557 484.85 413.987 482.009 419.193C479.608 423.593 476.815 427.937 474.776 432.51C462.238 413.038 452.279 402.656 432.779 390.044C445.659 381.345 454.963 371.82 457.965 356.062C459.965 345.563 458.731 335.468 455.754 325.295C450.122 337.461 443.207 346.789 430.186 351.514C420.778 354.928 410.613 355.409 400.743 356.472C384.181 358.255 367.783 361.969 352.755 369.345C342.147 364.205 331.654 358.942 321.221 353.453Z"/>
	<path fill="#FE3E69" d="M364.333 323.594C367.505 318.954 372.258 315.165 376.391 311.395C399.343 290.463 426.9 274.882 456.788 266.294C484.042 258.463 511.896 257.087 539.921 260.953C546.254 261.827 553.985 262.604 559.627 265.717C555.869 268.534 552.164 271.322 548.108 273.708C542.647 272.204 536.542 271.561 530.911 270.878C479.573 264.649 428.358 278.257 385.479 306.998C378.005 312.008 371.401 318.063 364.333 323.594Z"/>
	<path fill="#B40F4D" d="M751.357 752.624C760.882 749.497 770.602 747.081 780.126 743.886C769.814 759.984 761.374 777.205 749.784 792.479C706.786 849.148 639.406 889.953 570.209 905.07C499.402 920.538 424.245 910.687 359.647 878.032C378.351 872.109 397.259 865.448 416.38 861.066L419.214 836.864C424.197 842.388 429.084 847.865 433.336 853.989L529.267 825.137L554.979 817.191C559.077 815.899 563.394 814.083 567.582 813.281L569.486 812.363C585.273 806.879 601.562 803.114 617.522 798.202L617.51 767.408C619.982 769.239 622.266 771.067 624.468 773.219C627.769 779.403 633.143 784.949 637.465 790.496C658.613 784.06 679.547 776.477 700.532 769.499C716.239 764.277 732.247 759.793 747.664 753.767C748.903 753.501 750.147 753.011 751.357 752.624Z"/>
	<path fill="#FE3E69" d="M505.576 870.023C506.786 866.197 508.11 862.424 509.475 858.651C510.833 862.184 512.188 865.71 513.407 869.294C517.707 869.261 522.043 869.343 526.322 868.889L526.765 867.794L528.772 866.964L529.843 867.186C530.253 868.187 530.372 868.397 529.952 869.47C529.112 871.611 526.925 873.828 525.472 875.614C524.095 877.744 521.903 878.676 520.09 880.362C519.509 885.325 523.504 889.138 522.272 894.615L521.701 894.966C521.615 894.468 521.51 894.042 521.563 893.536C518.847 892.284 513.052 885.844 510.418 883.443C508.349 885.645 502.645 893.567 500.199 893.901L499.553 893.774C497.719 889.246 502.764 883.621 500.281 878.897C499.068 877.958 498.052 877.984 496.59 877.904C494.784 876.873 493.225 875.007 491.738 873.553C491.884 872.273 491.736 871.279 492.613 870.295L493.555 870.575C497.324 869.868 501.722 870.164 505.576 870.023Z"/>
	<path fill="#91083E" d="M491.738 873.553C491.884 872.273 491.736 871.279 492.613 870.295L493.555 870.575C496.785 873.234 502.867 876.886 503.232 881.423C503.535 885.193 501.304 890.284 500.199 893.901L499.553 893.774C497.719 889.246 502.764 883.621 500.281 878.897C499.068 877.958 498.052 877.984 496.59 877.904C494.784 876.873 493.225 875.007 491.738 873.553Z"/>
	<path fill="#91083E" d="M528.772 866.964L529.843 867.186C530.253 868.187 530.372 868.397 529.952 869.47C529.112 871.611 526.925 873.828 525.472 875.614C524.095 877.744 521.903 878.676 520.09 880.362C519.509 885.325 523.504 889.138 522.272 894.615L521.701 894.966C521.615 894.468 521.51 894.042 521.563 893.536C520.754 888.149 518.13 883.642 515.737 878.829C519.392 875.992 523.988 872.941 526.322 868.889L526.765 867.794L528.772 866.964Z"/>
	<path fill="#FE3E69" d="M491.738 873.553C493.225 875.007 494.784 876.873 496.59 877.904C498.286 881.716 497.347 885.807 496.878 889.813C469.846 894.4 430.305 894.921 404.848 884.365C423.057 884.639 440.936 883.997 458.852 880.439C469.915 878.241 480.432 874.628 491.738 873.553Z"/>
	<path fill="#FE3E69" d="M528.772 866.964C525.669 867.02 520.73 867.12 518.287 864.855C518.152 864.73 518.046 864.575 517.926 864.435C518.258 863.352 518.36 863.366 519.349 862.885C523.964 860.645 530.645 860.348 535.73 858.928C551.293 854.582 566.834 849.937 582.028 844.419C598.558 838.416 614.791 831.739 630.652 824.137C643.677 817.895 656.216 810.893 669.702 805.638C684.386 799.916 699.489 797.326 714.541 793.054C672.373 836.629 631.643 866.122 572.267 881.24C559.758 884.425 545.845 887.947 532.881 888.201C530.61 888.245 527.515 888.177 525.744 886.527C525.297 886.111 524.896 885.413 524.569 884.918L523.869 884.076C522.719 882.673 521.075 881.759 520.09 880.362C521.903 878.676 524.095 877.744 525.472 875.614C526.925 873.828 529.112 871.611 529.952 869.47C530.372 868.397 530.253 868.187 529.843 867.186L528.772 866.964Z"/>
	<path fill="#E01158" d="M525.472 875.614C526.763 876.256 526.964 876.128 527.421 877.468C526.932 880.188 525.257 882.281 524.569 884.918L523.869 884.076C522.719 882.673 521.075 881.759 520.09 880.362C521.903 878.676 524.095 877.744 525.472 875.614Z"/>
	<path fill="#B40F4D" d="M241.659 294.958C285.406 230.632 343.76 187.025 417.87 163.211C494.49 138.59 582.007 148.68 653.113 185.348C647.297 190.877 642.056 197.091 636.431 202.833C634.139 205.095 631.89 207.55 629.44 209.632C623.268 215.085 617.222 220.673 611.1 226.183C598.222 236.968 585.064 249.112 570.645 257.804C520.409 241.65 459.331 247.532 412.427 271.734C381.257 287.818 356.911 306.888 335.143 334.488C330.33 340.591 325.368 346.876 321.221 353.453C308.778 346.251 296.451 338.852 284.583 330.726C278.191 326.009 271.846 321.234 265.587 316.342L259.706 311.608C253.574 306.152 247.505 300.725 241.659 294.958Z"/>
	<path fill="#FEFEFE" d="M459.77 169.324C461.61 171.071 462.47 174.998 463.2 177.39C466.721 177.609 470.239 177.925 473.755 178.212C470.858 179.793 467.908 181.288 464.982 182.816C466.105 186.553 467.34 190.1 468.884 193.688C465.897 191.262 462.961 188.767 460.004 186.304C457.117 188.699 454.272 191.134 451.446 193.602L454.995 182.468L446.212 178.172C449.923 177.798 453.671 177.642 457.394 177.407L459.77 169.324Z"/>
	<path fill="#FEFEFE" d="M510.869 157.282C513.028 158.584 514.433 165.864 515.134 168.301C520.104 168.258 524.975 168.466 529.929 168.811C526.22 171.841 522.486 174.392 518.242 176.616C520.097 181.538 521.547 186.632 523.107 191.654C519.282 188.752 515.411 185.919 511.529 183.094C507.192 184.644 503.082 188.713 499.466 191.538C500.934 186.669 502.508 181.906 504.287 177.14C500.478 174.325 496.751 171.409 493.02 168.492C497.7 168.515 502.389 168.62 507.058 168.24L510.869 157.282Z"/>
	<path fill="#FE3E69" d="M555.828 175.647C574.52 179.424 622.02 191.4 636.431 202.833C634.139 205.095 631.89 207.55 629.44 209.632C624.848 206.816 619.138 204.978 614.085 203.102C593.794 195.57 573.197 190.353 552.097 185.665C553.424 182.374 554.897 179.074 555.828 175.647Z"/>
	<path fill="#FE3E69" d="M259.706 311.608C265.946 299.338 274.717 288.502 283.666 278.113C320.374 235.497 367.55 205.221 420.603 187.144L423.562 198.033C414.219 201.88 404.648 205.169 395.408 209.264C355.375 227.007 317.948 251.843 289.263 285.264C280.687 295.255 273.434 305.824 265.587 316.342L259.706 311.608Z"/>
	<path fill="#FE3E69" d="M284.583 330.726C291.837 322.688 297.729 313.198 304.574 304.756C349.524 249.321 415.532 213.979 486.586 206.799C523.445 203.074 559.631 206.905 594.584 219.228C599.585 220.991 607.014 222.848 611.1 226.183C598.222 236.968 585.064 249.112 570.645 257.804C520.409 241.65 459.331 247.532 412.427 271.734C381.257 287.818 356.911 306.888 335.143 334.488C330.33 340.591 325.368 346.876 321.221 353.453C308.778 346.251 296.451 338.852 284.583 330.726Z"/>
	<path fill="#2EC6E6" d="M723.468 106.725C731.803 130.433 733.051 167.08 727.894 191.804C726.195 199.946 723.421 207.718 719.814 215.204C709.716 236.158 694.896 253.73 678.138 269.648C673.769 273.798 656.082 285.596 654.674 289.163C649.576 293.364 643.772 294.859 639.583 300.28C639.51 306.312 639.064 312.612 637.66 318.499C635.713 323.843 634.999 330.219 633.859 335.812C632.849 340.764 631.449 345.818 630.665 350.789C627.388 364.254 623.065 375.789 618.396 388.704C619.415 388.997 620.185 389.068 621.244 389.034L621.028 389.487C620.019 389.665 617.827 389.715 617.217 390.509C615.007 393.385 613.805 398.261 612.553 401.692C608.704 412.276 603.9 422.269 597.94 431.831C596.789 433.138 595.992 434.539 595.135 436.049L596.461 436.223C606.782 440.949 618.398 443.13 629.533 445.087C665.404 451.393 704.845 453.648 740.699 446.149C734.79 451.014 728.803 455.273 722.219 459.211C689.523 480.91 649.414 490.456 610.719 482.647C604.519 481.396 588.131 474.857 583.643 474.71C617.202 493.246 657.532 500.879 695.651 501.184C661.856 520.305 627.493 528.351 589.154 517.714C578.013 514.623 567.967 509.646 557.218 505.622C581.665 524.427 625.311 541.665 656.162 543.196C629.376 556.803 598.256 557.737 569.871 548.424C556.658 544.088 544.065 537.38 533.037 528.953C544.353 543.832 565.498 557.189 582.179 565.746C588.6 569.041 595.401 571.728 601.733 575.159C594.345 578.462 556.103 567.75 546.861 564.757C539.658 562.425 532.337 559.747 525.493 556.517C521.188 554.485 499.892 541.043 498.097 540.984C498.206 543.059 500.427 544.866 501.819 546.285C509.164 555.723 516.912 564.795 525.431 573.205C529.902 577.619 535.453 581.739 539.503 586.47C538.009 587.593 536.031 588.17 534.16 588.052C516.116 586.909 496.08 576.37 482.816 564.553C477.746 560.036 473.367 554.725 468.941 549.587C469.897 553.218 471.124 560.405 474.171 562.724C478.946 576.711 485.918 589.221 493.365 601.913C492.833 602.121 492.833 602.158 492.164 602.207C484.498 602.768 450.106 578.764 444.182 573.444C437.376 567.332 432.038 560.004 425.507 553.687C424.896 553.096 425.25 553.249 424.369 553.268C424.276 554.428 424.296 554.901 424.893 555.91C429.303 578.865 440.214 596.13 456.746 612.332C447.538 608.861 438.447 605.097 429.584 600.813C381.748 577.687 346.422 543.244 328.649 492.48C336.119 487.912 344.361 485.892 352.984 484.804C357.432 486.83 361.42 492.155 367.098 494.668C360.606 489.156 354.881 483.676 349.538 477.016C349.612 465.308 348.856 452.064 340.282 443.055C333.059 435.465 330.021 438.861 321.725 438.65C321.583 438.466 321.423 438.295 321.298 438.099C319.589 435.399 320.368 430.385 320.963 427.421C321.663 428.37 322.292 429.235 322.413 430.441C322.442 430.725 322.416 431.012 322.447 431.296C322.567 432.419 322.496 432.767 323.382 433.447C324.779 431.785 325.146 428.309 325.858 426.194C333.516 403.46 362.362 384.996 384.582 379.569C398.979 376.054 413.589 376.172 427.167 369.367C431.088 368.164 434.541 367.164 438.694 367.755C428.435 379.973 416.461 384.507 400.742 385.855C393.196 386.502 380.209 386.004 373.998 391.036C392.964 387.027 414.211 394.282 430.045 404.535C446.148 414.962 458.295 429.835 467.186 446.689C466.094 449.109 465.025 451.536 463.805 453.895C452.204 472.864 442.697 482.471 425.547 496.236C440.025 488.607 453.587 479.19 464.585 466.954C468.224 462.904 471.386 457.164 475.673 453.866C476.812 453.76 477.61 453.35 478.504 452.661C484.348 448.162 489.145 439.423 493.427 433.328C521.265 393.711 533.214 359.972 540.176 312.286C568.023 296.249 595.79 279.928 621.203 260.161C664.145 226.759 716.577 162.127 723.468 106.725Z"/>
	<path d="M356.066 423.499C357.186 423.441 358.325 423.387 359.438 423.559C362.692 424.063 365.913 425.914 367.743 428.682C369.514 431.36 370.078 434.823 369.288 437.931C368.141 442.445 365.389 444.479 361.66 446.799C360.418 446.821 359.163 446.838 357.935 446.629C354.508 446.044 351.293 444.234 349.397 441.267C347.802 438.773 347.361 435.639 348.046 432.773C349.171 428.065 352.125 425.786 356.066 423.499Z"/>
	<path fill="#CA011D" d="M364.713 430.633C366.044 432.8 366.743 435.016 366.021 437.551C365.472 439.481 364.121 440.967 362.373 441.905C360.331 443.001 357.836 443.303 355.603 442.64C353.869 442.126 352.377 440.922 351.61 439.271C350.811 437.55 350.877 435.958 351.156 434.13L351.451 434.594C352.761 436.63 353.955 438.052 356.452 438.481C358.164 438.775 359.822 438.322 361.214 437.3C363.649 435.511 364.25 433.503 364.713 430.633Z"/>
	<path fill="#FEFEFE" d="M351.156 434.13C351.38 432.074 352.081 430.226 353.532 428.718C354.674 427.532 356.14 426.864 357.791 426.855C360.935 426.838 362.592 428.576 364.713 430.633C364.25 433.503 363.649 435.511 361.214 437.3C359.822 438.322 358.164 438.775 356.452 438.481C353.955 438.052 352.761 436.63 351.451 434.594L351.156 434.13Z"/>
	<path fill="#8FEDF5" d="M373.998 391.036C392.964 387.027 414.211 394.282 430.045 404.535C446.148 414.962 458.295 429.835 467.186 446.689C466.094 449.109 465.025 451.536 463.805 453.895C460.433 450.737 457.972 445.937 455.294 442.148C450.814 435.81 445.823 430.342 439.974 425.22C416.195 404.399 386.337 398.059 355.506 400.063C361.536 396.856 367.726 393.741 373.998 391.036Z"/>
	<path fill="#2DA5D5" d="M575.176 469.857C585.417 470.163 595.564 472.181 605.759 473.096C624.746 474.8 643.591 473.716 662.447 471.142C670.275 470.074 678.205 468.699 685.914 466.971C695.305 464.867 713.575 458.145 722.219 459.211C689.523 480.91 649.414 490.456 610.719 482.647C604.519 481.396 588.131 474.857 583.643 474.71C581.121 474.412 577.3 471.368 575.176 469.857Z"/>
	<path fill="#FEFEFE" d="M629.071 287.352C628.591 294.258 627.907 301.128 627.17 308.012C631.244 305.295 635.333 302.722 639.583 300.28C639.51 306.312 639.064 312.612 637.66 318.499C635.713 323.843 634.999 330.219 633.859 335.812C632.849 340.764 631.449 345.818 630.665 350.789C627.388 364.254 623.065 375.789 618.396 388.704C619.415 388.997 620.185 389.068 621.244 389.034L621.028 389.487C620.019 389.665 617.827 389.715 617.217 390.509C615.007 393.385 613.805 398.261 612.553 401.692C608.704 412.276 603.9 422.269 597.94 431.831C596.789 433.138 595.992 434.539 595.135 436.049C587.325 446.703 580.75 458.155 572.467 468.51C548.856 498.024 510.346 529.885 472.147 535.596C462.714 537.006 446.622 538.11 438.326 532.491C435.089 532.313 431.856 532.003 428.626 531.727C437.585 527.281 446.404 522.874 454.768 517.346C504.215 484.662 537.85 429.956 552.494 373.268C556.164 359.062 557.275 344.63 560.182 330.335C566.928 327.235 573.484 323.356 579.936 319.672C597.069 309.893 613.415 299.367 629.071 287.352Z"/>
	<path fill="#1988C0" d="M627.17 308.012C631.244 305.295 635.333 302.722 639.583 300.28C639.51 306.312 639.064 312.612 637.66 318.499C635.713 323.843 634.999 330.219 633.859 335.812C632.849 340.764 631.449 345.818 630.665 350.789C627.388 364.254 623.065 375.789 618.396 388.704C619.415 388.997 620.185 389.068 621.244 389.034L621.028 389.487C620.019 389.665 617.827 389.715 617.217 390.509C615.007 393.385 613.805 398.261 612.553 401.692C608.704 412.276 603.9 422.269 597.94 431.831C596.789 433.138 595.992 434.539 595.135 436.049C587.325 446.703 580.75 458.155 572.467 468.51C548.856 498.024 510.346 529.885 472.147 535.596C462.714 537.006 446.622 538.11 438.326 532.491C464.703 530.467 485.025 524.695 507.32 510.31C557.755 477.767 593.11 422.588 612.009 366.489C618.473 347.302 622.894 327.775 627.17 308.012Z"/>
</svg>
